<svg width="19" height="18" viewBox="0 0 19 18" fill="none" xmlns="http://www.w3.org/2000/svg">
<path d="M2 6L1.29289 5.29289L0.585786 6L1.29289 6.70711L2 6ZM12.5 6V7V6ZM12.5 17V16V17ZM7 16C6.44772 16 6 16.4477 6 17C6 17.5523 6.44772 18 7 18V16ZM7.70711 10.2929L2.70711 5.29289L1.29289 6.70711L6.29289 11.7071L7.70711 10.2929ZM2.70711 6.70711L7.70711 1.70711L6.29289 0.292893L1.29289 5.29289L2.70711 6.70711ZM2 7L12.5 7V5L2 5L2 7ZM12.5 16L7 16V18L12.5 18V16ZM17 11.5C17 13.9853 14.9853 16 12.5 16V18C16.0899 18 19 15.0899 19 11.5H17ZM12.5 7C14.9853 7 17 9.01472 17 11.5H19C19 7.91015 16.0899 5 12.5 5V7Z" fill="white"/>
</svg>
