<svg width="27" height="27" viewBox="0 0 27 27" fill="none" xmlns="http://www.w3.org/2000/svg">
<path d="M13.5 5.4C14.2456 5.4 14.85 6.00442 14.85 6.75V14.85C14.85 15.5956 14.2456 16.2 13.5 16.2C12.7544 16.2 12.15 15.5956 12.15 14.85V6.75C12.15 6.00442 12.7544 5.4 13.5 5.4Z" fill="#FF0000"/>
<path d="M13.5 18.9C12.7544 18.9 12.15 19.5044 12.15 20.25C12.15 20.9956 12.7544 21.6 13.5 21.6C14.2456 21.6 14.85 20.9956 14.85 20.25C14.85 19.5044 14.2456 18.9 13.5 18.9Z" fill="#FF0000"/>
<path fill-rule="evenodd" clip-rule="evenodd" d="M13.5 0C6.04416 0 0 6.04416 0 13.5C0 20.9558 6.04416 27 13.5 27C20.9558 27 27 20.9558 27 13.5C27 6.04416 20.9558 0 13.5 0ZM2.7 13.5C2.7 19.4647 7.53533 24.3 13.5 24.3C19.4647 24.3 24.3 19.4647 24.3 13.5C24.3 7.53533 19.4647 2.7 13.5 2.7C7.53533 2.7 2.7 7.53533 2.7 13.5Z" fill="#FF0000"/>
</svg>
