<svg width="51" height="40" viewBox="0 0 51 40" fill="none" xmlns="http://www.w3.org/2000/svg">
<path fill-rule="evenodd" clip-rule="evenodd" d="M33.9323 19C33.9323 23.6637 30.157 27.4444 25.5 27.4444C20.843 27.4444 17.0677 23.6637 17.0677 19C17.0677 14.3363 20.843 10.5556 25.5 10.5556C30.157 10.5556 33.9323 14.3363 33.9323 19ZM29.7162 19C29.7162 21.3319 27.8285 23.2222 25.5 23.2222C23.1715 23.2222 21.2838 21.3319 21.2838 19C21.2838 16.6681 23.1715 14.7778 25.5 14.7778C27.8285 14.7778 29.7162 16.6681 29.7162 19Z" fill="white"/>
<path fill-rule="evenodd" clip-rule="evenodd" d="M25.5 0C37.2874 0 47.1918 8.07357 50 19C47.1918 29.9264 37.2874 38 25.5 38C13.7126 38 3.80824 29.9264 1 19C3.80824 8.07357 13.7126 0 25.5 0ZM25.5 33.7778C16.0651 33.7778 8.06895 27.5672 5.38308 19C8.06895 10.4328 16.0652 4.22222 25.5 4.22222C34.9349 4.22222 42.931 10.4328 45.6169 19C42.931 27.5672 34.9349 33.7778 25.5 33.7778Z" fill="white"/>
<line x1="2.7462" y1="35.7665" x2="46.6712" y2="2.6667" stroke="white" stroke-width="5" stroke-linecap="round"/>
</svg>
