<svg width="49" height="38" viewBox="0 0 49 38" fill="none" xmlns="http://www.w3.org/2000/svg">
<path fill-rule="evenodd" clip-rule="evenodd" d="M32.9323 19C32.9323 23.6637 29.157 27.4444 24.5 27.4444C19.843 27.4444 16.0677 23.6637 16.0677 19C16.0677 14.3363 19.843 10.5556 24.5 10.5556C29.157 10.5556 32.9323 14.3363 32.9323 19ZM28.7162 19C28.7162 21.3319 26.8285 23.2222 24.5 23.2222C22.1715 23.2222 20.2838 21.3319 20.2838 19C20.2838 16.6681 22.1715 14.7778 24.5 14.7778C26.8285 14.7778 28.7162 16.6681 28.7162 19Z" fill="white"/>
<path fill-rule="evenodd" clip-rule="evenodd" d="M24.5 0C36.2874 0 46.1918 8.07357 49 19C46.1918 29.9264 36.2874 38 24.5 38C12.7126 38 2.80824 29.9264 0 19C2.80824 8.07357 12.7126 0 24.5 0ZM24.5 33.7778C15.0651 33.7778 7.06895 27.5672 4.38308 19C7.06895 10.4328 15.0652 4.22222 24.5 4.22222C33.9349 4.22222 41.931 10.4328 44.6169 19C41.931 27.5672 33.9349 33.7778 24.5 33.7778Z" fill="white"/>
</svg>
