<svg width="45" height="52" viewBox="0 0 45 52" fill="none" xmlns="http://www.w3.org/2000/svg">
<path fill-rule="evenodd" clip-rule="evenodd" d="M37.5 22.2857C41.6421 22.2857 45 25.6116 45 29.7143V44.5714C45 48.6741 41.6421 52 37.5 52H7.5C3.35787 52 0 48.6741 0 44.5714V29.7143C0 25.6116 3.35786 22.2857 7.5 22.2857V14.8571C7.5 6.65177 14.2157 0 22.5 0C30.7843 0 37.5 6.65177 37.5 14.8571V22.2857ZM22.5 4.95238C28.0228 4.95238 32.5 9.38689 32.5 14.8571V22.2857H12.5V14.8571C12.5 9.38689 16.9772 4.95238 22.5 4.95238ZM37.5 27.2381H7.5C6.11929 27.2381 5 28.3467 5 29.7143V44.5714C5 45.939 6.11929 47.0476 7.5 47.0476H37.5C38.8807 47.0476 40 45.939 40 44.5714V29.7143C40 28.3467 38.8807 27.2381 37.5 27.2381Z" fill="white"/>
</svg>
