<svg width="15" height="15" viewBox="0 0 15 15" fill="none" xmlns="http://www.w3.org/2000/svg">
<path d="M2.34495 8.6576L1.92069 8.23333H1.92069L2.34495 8.6576ZM8.91676 2.08579L9.34103 1.66152L8.91676 1.23726L8.4925 1.66152L8.91676 2.08579ZM12.9168 6.08579L13.341 6.51005L13.7653 6.08579L13.341 5.66152L12.9168 6.08579ZM6.34495 12.6576L6.76922 13.0819L6.34495 12.6576ZM1.79801 9.67958L2.38635 9.79725L1.79801 9.67958ZM1.06385 13.3504L0.475504 13.2327L1.06385 13.3504ZM1.6522 13.9387L1.76987 14.527H1.76987L1.6522 13.9387ZM5.32297 13.2045L5.2053 12.6162H5.2053L5.32297 13.2045ZM1.05868 13.9439L1.48294 13.5196L1.48294 13.5196L1.05868 13.9439ZM5.89561 13.0463L6.17872 13.5753H6.17873L5.89561 13.0463ZM1.95629 9.10694L1.42729 8.82382L1.42729 8.82383L1.95629 9.10694ZM2.80848 9.19407L3.23274 9.61834H3.23274L2.80848 9.19407ZM10.0026 2L9.57829 1.57573V1.57573L10.0026 2ZM12.831 2L12.4067 2.42426V2.42426L12.831 2ZM13.0026 2.17157L13.4268 1.74731V1.74731L13.0026 2.17157ZM13.0026 5L13.4268 5.42426L13.0026 5ZM5.80848 12.1941L5.38422 11.7698H5.38421L5.80848 12.1941ZM2.28241 10.1232L2.86449 10.2687H2.86449L2.28241 10.1232ZM1.61888 12.7773L1.03679 12.6318H1.03679L1.61888 12.7773ZM2.22522 13.3837L2.37074 13.9658L2.37074 13.9658L2.22522 13.3837ZM4.87934 12.7201L4.73382 12.1381H4.73382L4.87934 12.7201ZM1.58358 13.419L2.00785 12.9947L2.00784 12.9947L1.58358 13.419ZM5.39821 12.553L5.1026 12.0309L5.10259 12.0309L5.39821 12.553ZM2.44953 9.60434L1.92741 9.30872H1.92741L2.44953 9.60434ZM2.76922 9.08186L9.34103 2.51005L8.4925 1.66152L1.92069 8.23333L2.76922 9.08186ZM8.4925 2.51005L12.4925 6.51005L13.341 5.66152L9.34103 1.66152L8.4925 2.51005ZM12.4925 5.66152L5.92069 12.2333L6.76922 13.0819L13.341 6.51005L12.4925 5.66152ZM1.20966 9.56191L0.475504 13.2327L1.6522 13.468L2.38635 9.79725L1.20966 9.56191ZM1.76987 14.527L5.44064 13.7929L5.2053 12.6162L1.53453 13.3504L1.76987 14.527ZM0.475504 13.2327C0.446123 13.3796 0.409185 13.5562 0.401607 13.7061C0.393431 13.8677 0.409793 14.1435 0.634414 14.3681L1.48294 13.5196C1.50921 13.5459 1.53278 13.5766 1.55198 13.6107C1.57096 13.6445 1.58267 13.6762 1.58972 13.7025C1.60279 13.7512 1.59941 13.7797 1.60007 13.7667C1.60068 13.7546 1.60348 13.727 1.61297 13.6719C1.62231 13.6177 1.6351 13.5535 1.6522 13.468L0.475504 13.2327ZM1.53453 13.3504C1.44901 13.3675 1.38487 13.3802 1.33062 13.3896C1.27552 13.3991 1.24794 13.4019 1.23588 13.4025C1.22281 13.4031 1.25134 13.3998 1.30003 13.4128C1.32633 13.4199 1.35806 13.4316 1.39182 13.4506C1.42596 13.4698 1.45667 13.4933 1.48294 13.5196L0.634412 14.3681C0.859031 14.5928 1.13487 14.6091 1.2965 14.6009C1.44631 14.5934 1.62297 14.5564 1.76987 14.527L1.53453 13.3504ZM5.92069 12.2333C5.68342 12.4706 5.64671 12.4989 5.6125 12.5173L6.17873 13.5753C6.40561 13.4538 6.58143 13.2697 6.76922 13.0819L5.92069 12.2333ZM5.44064 13.7929C5.70107 13.7408 5.95184 13.6967 6.17872 13.5753L5.6125 12.5173C5.57829 12.5356 5.53433 12.5504 5.2053 12.6162L5.44064 13.7929ZM1.92069 8.23333C1.7329 8.42113 1.54871 8.59694 1.42729 8.82382L2.4853 9.39006C2.50361 9.35585 2.53195 9.31913 2.76922 9.08186L1.92069 8.23333ZM2.38635 9.79725C2.45216 9.46822 2.46699 9.42426 2.4853 9.39005L1.42729 8.82383C1.30586 9.05071 1.26174 9.30149 1.20966 9.56191L2.38635 9.79725ZM3.23274 9.61834L10.4268 2.42426L9.57829 1.57573L2.38421 8.76981L3.23274 9.61834ZM12.4067 2.42426L12.5783 2.59584L13.4268 1.74731L13.2552 1.57574L12.4067 2.42426ZM12.5783 4.57574L5.38422 11.7698L6.23274 12.6183L13.4268 5.42426L12.5783 4.57574ZM1.70032 9.97769L1.03679 12.6318L2.20096 12.9229L2.86449 10.2687L1.70032 9.97769ZM2.37074 13.9658L5.02486 13.3022L4.73382 12.1381L2.0797 12.8016L2.37074 13.9658ZM1.03679 12.6318C0.996555 12.7928 0.948127 12.9799 0.932699 13.1376C0.916546 13.3027 0.918031 13.602 1.15932 13.8432L2.00784 12.9947C2.03613 13.023 2.0613 13.0564 2.08133 13.0937C2.10109 13.1306 2.11249 13.1649 2.11889 13.1927C2.13059 13.2435 2.1253 13.2718 2.127 13.2544C2.12854 13.2387 2.1335 13.2065 2.14698 13.1457C2.16024 13.0859 2.17781 13.0155 2.20096 12.9229L1.03679 12.6318ZM2.0797 12.8016C1.9871 12.8247 1.91662 12.8423 1.85682 12.8556C1.79605 12.8691 1.76387 12.874 1.74813 12.8756C1.73077 12.8772 1.75905 12.872 1.80988 12.8837C1.83766 12.8901 1.87199 12.9015 1.90881 12.9212C1.94614 12.9413 1.97955 12.9664 2.00785 12.9947L1.15931 13.8432C1.4006 14.0845 1.69985 14.086 1.86496 14.0699C2.02267 14.0544 2.20979 14.006 2.37074 13.9658L2.0797 12.8016ZM5.38421 11.7698C5.16704 11.987 5.13363 12.0133 5.1026 12.0309L5.69383 13.0751C5.89938 12.9588 6.06062 12.7905 6.23274 12.6183L5.38421 11.7698ZM5.02486 13.3022C5.26101 13.2432 5.48829 13.1915 5.69383 13.0751L5.10259 12.0309C5.07156 12.0485 5.03178 12.0636 4.73382 12.1381L5.02486 13.3022ZM12.5783 2.59584C12.9236 2.94116 13.139 3.15838 13.2755 3.3373C13.4015 3.50237 13.4026 3.56261 13.4026 3.58579H14.6026C14.6026 3.19474 14.437 2.88121 14.2296 2.6094C14.0327 2.35143 13.7482 2.06865 13.4268 1.74731L12.5783 2.59584ZM13.4268 5.42426C13.7482 5.10293 14.0327 4.82014 14.2296 4.56217C14.4369 4.29036 14.6026 3.97683 14.6026 3.58579H13.4026C13.4026 3.60896 13.4015 3.6692 13.2755 3.83428C13.139 4.01319 12.9236 4.23041 12.5783 4.57574L13.4268 5.42426ZM10.4268 2.42426C10.7721 2.07894 10.9894 1.86352 11.1683 1.72701C11.3333 1.60107 11.3936 1.6 11.4168 1.6V0.4C11.0257 0.4 10.7122 0.565599 10.4404 0.772986C10.1824 0.96981 9.89963 1.2544 9.57829 1.57573L10.4268 2.42426ZM13.2552 1.57574C12.9339 1.2544 12.6511 0.969811 12.3931 0.772987C12.1213 0.5656 11.8078 0.4 11.4168 0.4V1.6C11.4399 1.6 11.5002 1.60107 11.6653 1.72701C11.8442 1.86352 12.0614 2.07894 12.4067 2.42426L13.2552 1.57574ZM2.38422 8.76981C2.21209 8.94193 2.04379 9.10317 1.92741 9.30872L2.97165 9.89996C2.98922 9.86892 3.01557 9.83551 3.23274 9.61834L2.38422 8.76981ZM2.86449 10.2687C2.93898 9.97077 2.95408 9.93099 2.97165 9.89996L1.92741 9.30872C1.81103 9.51426 1.75936 9.74154 1.70032 9.97769L2.86449 10.2687Z" fill="white"/>
</svg>
